<svg width="23" height="23" viewBox="0 0 23 23" fill="none" xmlns="http://www.w3.org/2000/svg">
<g id="Social Icon " clip-path="url(#clip0_376_138)">
<path id="Vector" d="M11.6737 0C7.78082 0.0238905 4.77173 1.15434 2.74973 3.3729C0.951828 5.34386 0.0302168 8.09452 0 11.5065V11.5087C0.0314758 14.9218 0.951828 17.6572 2.74973 19.6282C4.77173 21.8457 7.79719 22.9772 11.6889 23H11.6914C15.1512 22.9794 17.605 22.1964 19.6271 20.4546C22.2761 18.1709 22.198 15.3062 21.323 13.5448C20.6557 12.2048 19.34 11.133 17.5761 10.4662C17.3495 7.22469 15.2343 5.33409 11.7594 5.31454C9.70714 5.30368 7.85384 6.09641 6.71945 7.58088L8.80315 8.8145C9.47422 7.93598 10.5368 7.51246 11.743 7.52224C13.4893 7.53201 14.6388 8.36275 14.9598 9.82115C13.925 9.68776 12.8766 9.64954 11.8324 9.70713C8.50854 9.87219 6.33293 11.5662 6.47772 13.9151C6.62881 16.3715 9.3886 17.7104 12.0086 17.5866C15.1462 17.4379 17.0108 15.4408 17.4527 12.8943C18.1792 13.2994 18.7155 13.8174 19.0189 14.4288C19.5729 15.5418 19.6082 17.3781 17.8669 18.8789C16.3347 20.1994 14.4927 20.7749 11.6826 20.7923C8.56646 20.7728 6.22843 19.9116 4.7113 18.248C3.28607 16.6842 2.54073 14.419 2.51303 11.5C2.54073 8.58102 3.28607 6.31468 4.7113 4.75312C6.22843 3.08839 8.56646 2.22833 11.6826 2.2077C14.8213 2.22833 17.2022 3.09273 18.7785 4.76615C19.6485 5.68919 20.1936 6.79249 20.5575 7.93163L23 7.37021C22.543 5.91723 21.8203 4.53267 20.7149 3.35878C18.6337 1.15 15.5755 0.0238905 11.6737 0ZM11.9734 11.9105C12.9983 11.8518 14.0276 11.9087 15.0354 12.0799C14.8591 13.7935 14.037 15.2801 11.8727 15.3822C10.4726 15.4506 9.05622 14.9109 8.98697 13.7957C8.93661 12.966 9.64796 12.0256 11.9734 11.9105Z" fill="#464646"/>
</g>
<defs>
<clipPath id="clip0_376_138">
<rect width="23" height="23" fill="white"/>
</clipPath>
</defs>
</svg>
