<svg width="39" height="33" viewBox="0 0 39 33" fill="none" xmlns="http://www.w3.org/2000/svg">
<g id="Vector 3" filter="url(#filter0_d_458_468)">
<path d="M4.50543 0L6.3587 10.3741C5.57565 12.373 4 14.2857 4 14.2857C4 14.2857 6.02174 13.9456 6.3587 13.7755C6.69565 13.6054 5.45708 15.5294 5.17935 16.3265C5.98264 15.7609 6.54837 15.7989 7.70652 16.3265C11.7205 20.6045 14.4764 22.3391 20.1739 25C26.0503 22.3818 28.7517 20.7336 33.1467 16.3265C33.6886 16.0163 34.0856 16.0026 35 16.3265C34.619 15.1828 34.1988 14.6313 33.1467 13.7755C33.8705 13.5239 34.2763 13.3858 35 13.6054C34.0492 12.685 33.6992 12.0102 33.1467 10.3741L35 0L26.2391 5.27211C21.0691 4.49154 18.2494 4.41702 13.4348 5.27211L4.50543 0Z" fill="#E9A351"/>
</g>
<defs>
<filter id="filter0_d_458_468" x="0" y="0" width="39" height="33" filterUnits="userSpaceOnUse" color-interpolation-filters="sRGB">
<feFlood flood-opacity="0" result="BackgroundImageFix"/>
<feColorMatrix in="SourceAlpha" type="matrix" values="0 0 0 0 0 0 0 0 0 0 0 0 0 0 0 0 0 0 127 0" result="hardAlpha"/>
<feOffset dy="4"/>
<feGaussianBlur stdDeviation="2"/>
<feComposite in2="hardAlpha" operator="out"/>
<feColorMatrix type="matrix" values="0 0 0 0 0 0 0 0 0 0 0 0 0 0 0 0 0 0 0.25 0"/>
<feBlend mode="normal" in2="BackgroundImageFix" result="effect1_dropShadow_458_468"/>
<feBlend mode="normal" in="SourceGraphic" in2="effect1_dropShadow_458_468" result="shape"/>
</filter>
</defs>
</svg>
